<mxfile host="app.diagrams.net" modified="2023-09-26T17:04:01.117Z" agent="Mozilla/5.0 (Windows NT 10.0; Win64; x64) AppleWebKit/537.36 (KHTML, like Gecko) Chrome/117.0.0.0 Safari/537.36 Edg/117.0.2045.36" version="21.8.0" etag="zTpnQ4qDOgcuYDFp3rLo" type="github">
  <diagram name="Page-1" id="NBUebJFamC7RVvdGNR5l">
    <mxGraphModel>
      <root>
        <mxCell id="0" />
        <mxCell id="1" parent="0" />
      </root>
    </mxGraphModel>
  </diagram>
</mxfile>
